<svg id="SvgjsSvg1000" xmlns="http://www.w3.org/2000/svg" version="1.1" xmlns:xlink="http://www.w3.org/1999/xlink" xmlns:svgjs="http://svgjs.com/svgjs" width="62" height="25" viewBox="0 0 62 25"><title>Zajno_logo-01</title><desc>Created with Avocode.</desc><defs id="SvgjsDefs1001"></defs><path id="SvgjsPath1007" d="M1280.5 33.82C1280.5 33.82 1287.39 27.22 1303.57 21.310000000000002C1304.28 21.230000000000004 1304.9099999999999 20.630000000000003 1305.36 20.070000000000004C1305.31 20.060000000000002 1305.24 20.040000000000003 1305.1699999999998 20.020000000000003C1305.0099999999998 19.990000000000002 1304.84 19.940000000000005 1304.6699999999998 19.900000000000002C1304.4999999999998 19.87 1304.31 19.820000000000004 1304.12 19.78C1303.75 19.700000000000003 1303.32 19.630000000000003 1302.9099999999999 19.540000000000003C1302.08 19.400000000000002 1301.2399999999998 19.300000000000004 1300.61 19.230000000000004C1299.9699999999998 19.180000000000003 1299.56 19.160000000000004 1299.56 19.160000000000004C1299.56 19.160000000000004 1299.99 19.160000000000004 1300.6299999999999 19.180000000000003C1301.26 19.200000000000003 1302.1 19.270000000000003 1302.9399999999998 19.350000000000005C1303.37 19.400000000000006 1303.7799999999997 19.450000000000006 1304.1699999999998 19.520000000000007C1304.36 19.560000000000006 1304.55 19.590000000000007 1304.7399999999998 19.630000000000006C1304.9099999999999 19.660000000000007 1305.0799999999997 19.700000000000006 1305.2399999999998 19.730000000000008C1305.3599999999997 19.750000000000007 1305.4599999999998 19.78000000000001 1305.5599999999997 19.800000000000008C1305.5599999999997 19.800000000000008 1305.5599999999997 19.78000000000001 1305.5799999999997 19.78000000000001C1305.4599999999998 19.750000000000007 1305.3199999999997 19.710000000000008 1305.1899999999996 19.660000000000007C1304.9799999999996 19.610000000000007 1304.7399999999996 19.560000000000006 1304.4999999999995 19.490000000000006C1304.2399999999996 19.420000000000005 1303.9699999999996 19.370000000000005 1303.6799999999996 19.300000000000004C1303.5199999999995 19.270000000000003 1303.3899999999996 19.230000000000004 1303.2299999999996 19.200000000000003C1303.0799999999995 19.160000000000004 1302.9199999999996 19.140000000000004 1302.7499999999995 19.110000000000003C1302.5999999999995 19.080000000000002 1302.4299999999996 19.060000000000002 1302.2499999999995 19.020000000000003C1302.0799999999995 19.01 1301.9099999999996 18.970000000000002 1301.7399999999996 18.960000000000004C1301.3999999999996 18.900000000000006 1301.0499999999995 18.870000000000005 1300.7099999999996 18.820000000000004C1300.3699999999997 18.770000000000003 1300.0099999999995 18.750000000000004 1299.6699999999996 18.710000000000004C1299.3199999999997 18.680000000000003 1298.9799999999996 18.660000000000004 1298.6499999999996 18.650000000000006C1298.3299999999997 18.630000000000006 1297.9999999999995 18.610000000000007 1297.7099999999996 18.610000000000007C1297.3999999999996 18.590000000000007 1297.1299999999997 18.590000000000007 1296.8499999999997 18.590000000000007C1295.8099999999997 18.580000000000005 1295.1099999999997 18.630000000000006 1295.1099999999997 18.630000000000006C1295.1099999999997 18.630000000000006 1295.8099999999997 18.560000000000006 1296.8499999999997 18.540000000000006C1297.1099999999997 18.540000000000006 1297.3999999999996 18.520000000000007 1297.7099999999996 18.520000000000007C1298.0199999999995 18.520000000000007 1298.3299999999995 18.520000000000007 1298.6499999999996 18.540000000000006C1298.9799999999996 18.560000000000006 1299.3199999999997 18.560000000000006 1299.6699999999996 18.580000000000005C1300.0099999999995 18.590000000000007 1300.3699999999997 18.610000000000007 1300.7099999999996 18.650000000000006C1301.0499999999995 18.680000000000007 1301.4099999999996 18.700000000000006 1301.7599999999995 18.750000000000007C1301.9299999999996 18.770000000000007 1302.0999999999995 18.78000000000001 1302.2699999999995 18.800000000000008C1302.4399999999996 18.820000000000007 1302.6099999999994 18.85000000000001 1302.7699999999995 18.870000000000008C1302.9399999999996 18.890000000000008 1303.0899999999995 18.92000000000001 1303.2499999999995 18.94000000000001C1303.3999999999996 18.97000000000001 1303.5599999999995 18.99000000000001 1303.7099999999996 19.020000000000007C1303.9999999999995 19.080000000000005 1304.2899999999995 19.130000000000006 1304.5499999999995 19.180000000000007C1304.8099999999995 19.230000000000008 1305.0499999999995 19.28000000000001 1305.2499999999995 19.330000000000005C1305.4599999999996 19.390000000000004 1305.6299999999997 19.440000000000005 1305.7899999999995 19.470000000000006C1305.9099999999994 19.300000000000004 1305.9699999999996 19.180000000000007 1305.9699999999996 19.180000000000007C1305.8199999999995 18.210000000000008 1292.5699999999995 17.010000000000005 1283.2099999999996 19.370000000000008C1276.0199999999995 21.160000000000007 1275.7799999999995 23.550000000000008 1276.2999999999995 24.10000000000001C1276.3999999999994 24.050000000000008 1276.4999999999995 24.000000000000007 1276.6199999999994 23.95000000000001C1276.9699999999993 23.79000000000001 1277.3799999999994 23.59000000000001 1277.8599999999994 23.42000000000001C1278.3399999999995 23.210000000000008 1278.8899999999994 23.02000000000001 1279.4999999999995 22.81000000000001C1279.8099999999995 22.710000000000008 1280.1199999999994 22.620000000000008 1280.4499999999996 22.52000000000001C1280.7699999999995 22.43000000000001 1281.1199999999997 22.33000000000001 1281.4799999999996 22.23000000000001C1281.8399999999995 22.14000000000001 1282.1999999999996 22.04000000000001 1282.5699999999995 21.95000000000001C1282.9499999999996 21.87000000000001 1283.3299999999995 21.78000000000001 1283.7199999999996 21.69000000000001C1284.1199999999997 21.620000000000008 1284.5099999999995 21.54000000000001 1284.8999999999996 21.45000000000001C1285.3199999999997 21.38000000000001 1285.7099999999996 21.30000000000001 1286.1199999999997 21.25000000000001C1286.9399999999996 21.11000000000001 1287.7799999999997 20.99000000000001 1288.6199999999997 20.90000000000001C1289.4599999999996 20.800000000000008 1290.3099999999997 20.710000000000008 1291.1499999999996 20.640000000000008C1291.9899999999996 20.570000000000007 1292.7899999999997 20.520000000000007 1293.5999999999997 20.470000000000006C1294.3899999999996 20.440000000000005 1295.1599999999996 20.400000000000006 1295.8899999999996 20.380000000000006C1296.6099999999997 20.370000000000005 1297.3199999999997 20.350000000000005 1297.9499999999996 20.350000000000005C1300.4899999999996 20.330000000000005 1302.1899999999996 20.440000000000005 1302.1899999999996 20.440000000000005C1302.1899999999996 20.440000000000005 1300.4899999999996 20.370000000000005 1297.9499999999996 20.420000000000005C1297.3199999999995 20.440000000000005 1296.6299999999997 20.450000000000006 1295.8899999999996 20.490000000000006C1295.1699999999996 20.520000000000007 1294.3999999999996 20.560000000000006 1293.6099999999997 20.610000000000007C1292.8299999999997 20.660000000000007 1291.9999999999998 20.730000000000008 1291.1799999999996 20.820000000000007C1290.3599999999997 20.900000000000006 1289.5199999999995 20.99000000000001 1288.6799999999996 21.110000000000007C1287.8399999999997 21.210000000000008 1286.9999999999995 21.350000000000005 1286.1899999999996 21.500000000000007C1285.7799999999995 21.570000000000007 1285.3699999999997 21.660000000000007 1284.9699999999996 21.730000000000008C1284.5799999999995 21.810000000000006 1284.1799999999996 21.90000000000001 1283.7899999999995 21.99000000000001C1283.4099999999994 22.070000000000007 1283.0199999999995 22.18000000000001 1282.6599999999994 22.26000000000001C1282.2999999999995 22.370000000000008 1281.9399999999994 22.45000000000001 1281.5799999999995 22.550000000000008C1281.2399999999996 22.660000000000007 1280.8899999999994 22.76000000000001 1280.5699999999995 22.860000000000007C1280.2399999999996 22.970000000000006 1279.9299999999994 23.070000000000007 1279.6199999999994 23.170000000000005C1279.0199999999995 23.400000000000006 1278.4899999999993 23.590000000000007 1278.0099999999995 23.790000000000006C1277.5999999999995 23.950000000000006 1277.2599999999995 24.120000000000005 1276.9699999999996 24.260000000000005C1278.8999999999996 24.070000000000004 1284.6499999999996 21.350000000000005 1298.3599999999997 20.920000000000005C1298.3599999999997 20.920000000000005 1268.3399999999997 33.540000000000006 1272.3699999999997 38.5C1272.5899999999997 38.78 1280.9299999999996 37.42 1299.0099999999998 37.36C1299.0099999999998 37.36 1299.1899999999998 37.3 1299.4299999999998 37.17C1299.0099999999998 37.160000000000004 1298.57 37.14 1298.09 37.11C1297.4399999999998 37.07 1296.73 37.05 1295.98 37.04C1295.23 37.019999999999996 1294.44 37 1293.6100000000001 36.99C1292.7900000000002 36.99 1291.95 36.97 1291.0900000000001 36.97C1290.2400000000002 36.97 1289.3600000000001 36.97 1288.4900000000002 36.99C1288.0600000000002 36.99 1287.6100000000001 37 1287.1800000000003 37C1286.7600000000002 37.02 1286.3100000000004 37.02 1285.8800000000003 37.04C1285.4500000000003 37.05 1285.0200000000004 37.05 1284.6000000000004 37.07C1284.1700000000003 37.09 1283.7600000000004 37.11 1283.3400000000004 37.12C1282.9300000000003 37.14 1282.5400000000004 37.16 1282.1400000000003 37.169999999999995C1281.7500000000002 37.19 1281.3700000000003 37.23 1281.0000000000002 37.239999999999995C1280.2400000000002 37.3 1279.5400000000002 37.33 1278.8900000000003 37.379999999999995C1278.2400000000002 37.42999999999999 1277.6400000000003 37.48 1277.1000000000004 37.519999999999996C1276.5700000000004 37.56999999999999 1276.1100000000004 37.62 1275.7300000000005 37.66C1274.9800000000005 37.739999999999995 1274.5300000000004 37.779999999999994 1274.5300000000004 37.779999999999994C1274.5300000000004 37.779999999999994 1274.9600000000005 37.73 1275.7300000000005 37.62C1276.1100000000006 37.57 1276.5700000000004 37.5 1277.1000000000004 37.43C1277.6400000000003 37.38 1278.2400000000005 37.31 1278.8900000000003 37.23C1279.5400000000004 37.13999999999999 1280.2400000000002 37.089999999999996 1281.0000000000002 37.019999999999996C1281.3700000000001 36.989999999999995 1281.7500000000002 36.949999999999996 1282.1400000000003 36.919999999999995C1282.5400000000004 36.879999999999995 1282.9300000000003 36.849999999999994 1283.3400000000004 36.82999999999999C1283.7600000000004 36.79999999999999 1284.1700000000003 36.75999999999999 1284.6000000000004 36.72999999999999C1285.0200000000004 36.70999999999999 1285.4400000000003 36.67999999999999 1285.8800000000003 36.639999999999986C1286.3100000000004 36.61999999999998 1286.7400000000002 36.58999999999999 1287.1800000000003 36.569999999999986C1287.6100000000004 36.54999999999998 1288.0600000000004 36.539999999999985 1288.4900000000002 36.51999999999999C1289.3600000000001 36.46999999999999 1290.2400000000002 36.44999999999999 1291.0900000000001 36.41999999999999C1291.95 36.37999999999999 1292.8100000000002 36.37999999999999 1293.63 36.36999999999999C1294.45 36.36999999999999 1295.24 36.34999999999999 1296 36.34999999999999C1296.75 36.34999999999999 1297.45 36.34999999999999 1298.12 36.34999999999999C1299.1699999999998 36.34999999999999 1300.08 36.37999999999999 1300.8 36.399999999999984C1301.26 36.039999999999985 1301.62 35.61999999999998 1301.55 35.18999999999998C1301.24 33.36999999999998 1280.5 33.819999999999986 1280.5 33.819999999999986 " fill="#FFFFFF" fill-opacity="1" transform="matrix(1,0,0,1,-1271,-17)"></path><path id="SvgjsPath1008" d="M1313.46 24.74C1314.65 23.479999999999997 1315.77 22.75 1315.77 22.75C1316.07 22.26 1315.58 20.92 1315.03 20.32C1315.01 20.32 1315.01 20.34 1314.99 20.34C1314.92 20.39 1314.84 20.44 1314.75 20.49C1314.67 20.54 1314.58 20.61 1314.48 20.66C1314.31 20.77 1314.1200000000001 20.92 1313.93 21.06C1313.5700000000002 21.34 1313.23 21.639999999999997 1312.97 21.88C1312.72 22.11 1312.55 22.279999999999998 1312.55 22.279999999999998C1312.55 22.279999999999998 1312.68 22.099999999999998 1312.8899999999999 21.83C1313.1 21.56 1313.3999999999999 21.209999999999997 1313.7199999999998 20.869999999999997C1313.8899999999999 20.709999999999997 1314.0499999999997 20.54 1314.2199999999998 20.389999999999997C1314.2899999999997 20.319999999999997 1314.37 20.24 1314.4599999999998 20.169999999999998C1314.5199999999998 20.119999999999997 1314.5799999999997 20.069999999999997 1314.6499999999999 20.02C1313.9899999999998 19.8 1312.4899999999998 21.33 1312.08 22.03C1311.6799999999998 22.78 1312.9499999999998 24.51 1313.46 24.740000000000002 " fill="#FFFFFF" fill-opacity="1" transform="matrix(1,0,0,1,-1271,-17)"></path><path id="SvgjsPath1009" d="M1327.13 30.94C1326.91 30.87 1326.65 30.6 1326.5700000000002 30.150000000000002C1326.5700000000002 30.160000000000004 1326.5500000000002 30.200000000000003 1326.5500000000002 30.220000000000002C1326.5200000000002 30.360000000000003 1326.5000000000002 30.520000000000003 1326.5200000000002 30.660000000000004C1326.5300000000002 30.800000000000004 1326.5800000000002 30.940000000000005 1326.6700000000003 31.040000000000003C1326.7500000000002 31.150000000000002 1326.8600000000004 31.240000000000002 1326.9700000000003 31.310000000000002C1327.0900000000001 31.380000000000003 1327.2100000000003 31.42 1327.3100000000002 31.470000000000002C1327.43 31.500000000000004 1327.5400000000002 31.520000000000003 1327.64 31.540000000000003C1327.74 31.560000000000002 1327.8200000000002 31.570000000000004 1327.89 31.570000000000004C1328.0300000000002 31.590000000000003 1328.1100000000001 31.590000000000003 1328.1100000000001 31.590000000000003C1328.1100000000001 31.590000000000003 1328.0300000000002 31.590000000000003 1327.89 31.590000000000003C1327.8200000000002 31.590000000000003 1327.74 31.590000000000003 1327.64 31.590000000000003C1327.5400000000002 31.590000000000003 1327.43 31.570000000000004 1327.3000000000002 31.560000000000002C1327.1800000000003 31.540000000000003 1327.0400000000002 31.500000000000004 1326.91 31.430000000000003C1326.77 31.380000000000003 1326.64 31.290000000000003 1326.52 31.17C1326.4 31.040000000000003 1326.31 30.87 1326.26 30.69C1326.21 30.52 1326.21 30.32 1326.23 30.150000000000002C1326.26 29.790000000000003 1326.38 29.46 1326.52 29.160000000000004C1326.65 28.860000000000003 1326.79 28.590000000000003 1326.92 28.380000000000003C1327.0600000000002 28.17 1327.18 27.990000000000002 1327.26 27.85C1327.35 27.73 1327.4 27.66 1327.4 27.66L1327.42 27.68C1327.47 27.61 1327.52 27.52 1327.5900000000001 27.45C1329.2200000000003 25.24 1331.4900000000002 25.119999999999997 1331.4900000000002 25.119999999999997C1331.4700000000003 27.979999999999997 1328.6400000000003 31.449999999999996 1327.1300000000003 30.939999999999998ZM1297.3 31.75C1297.3 31.75 1296.83 30.94 1298.2 28.59C1299.8300000000002 25.81 1302.5800000000002 25.42 1303.3300000000002 25.37C1302.8700000000001 25.93 1302.39 26.64 1301.9700000000003 27.34C1301.7700000000002 27.48 1301.5100000000002 27.76 1301.1900000000003 28.24C1299.5600000000002 30.619999999999997 1297.3000000000002 31.75 1297.3000000000002 31.75ZM1332.12 24.93C1331.9699999999998 24.91 1331.81 24.89 1331.6399999999999 24.89C1331.4699999999998 24.89 1331.32 24.87 1331.1499999999999 24.89C1330.9799999999998 24.91 1330.81 24.91 1330.6599999999999 24.93C1330.57 24.94 1330.4899999999998 24.94 1330.4199999999998 24.96C1330.34 24.98 1330.2699999999998 25 1330.1799999999998 25.01C1330.0299999999997 25.05 1329.8799999999999 25.080000000000002 1329.7399999999998 25.12C1329.6099999999997 25.17 1329.4699999999998 25.21 1329.3499999999997 25.240000000000002C1328.8799999999997 25.42 1328.5899999999997 25.610000000000003 1328.5899999999997 25.610000000000003C1328.5899999999997 25.610000000000003 1328.8599999999997 25.380000000000003 1329.3199999999997 25.150000000000002C1329.4399999999996 25.080000000000002 1329.5599999999997 25.03 1329.6899999999996 24.98C1329.8299999999997 24.93 1329.9799999999996 24.85 1330.1299999999997 24.82C1330.2199999999996 24.8 1330.2899999999997 24.77 1330.3699999999997 24.75C1330.4599999999996 24.73 1330.5399999999997 24.71 1330.6099999999997 24.68C1330.7799999999997 24.63 1330.9499999999996 24.61 1331.1199999999997 24.57C1331.2899999999997 24.54 1331.4599999999996 24.54 1331.6299999999997 24.5C1331.7999999999997 24.48 1331.9499999999996 24.48 1332.0999999999997 24.48C1331.5799999999997 23.78 1330.7399999999998 23.29 1330.0499999999997 23.060000000000002C1328.7899999999997 22.630000000000003 1325.7399999999998 24.680000000000003 1324.4499999999998 27.01C1322.83 28.19 1321.4199999999998 29.12 1321.4199999999998 29.12C1321.4199999999998 29.12 1323.4799999999998 26 1323.7499999999998 25.14C1323.7799999999997 25.05 1323.7699999999998 24.93 1323.7199999999998 24.77C1323.6599999999999 24.87 1323.6 25 1323.5299999999997 25.12C1323.3399999999997 25.470000000000002 1323.1199999999997 25.880000000000003 1322.8699999999997 26.3C1322.6299999999997 26.720000000000002 1322.3599999999997 27.18 1322.0699999999997 27.64C1321.7999999999997 28.080000000000002 1321.5099999999998 28.54 1321.2399999999998 28.95C1320.9699999999998 29.349999999999998 1320.7099999999998 29.74 1320.4899999999998 30.06C1320.2699999999998 30.389999999999997 1320.0799999999997 30.66 1319.9499999999998 30.83C1319.8099999999997 31.029999999999998 1319.7399999999998 31.13 1319.7399999999998 31.13C1319.7399999999998 31.13 1319.8099999999997 31.029999999999998 1319.9299999999998 30.83C1320.0499999999997 30.639999999999997 1320.2399999999998 30.36 1320.4399999999998 30.02C1320.6399999999999 29.69 1320.8799999999999 29.3 1321.1399999999999 28.88C1321.3899999999999 28.45 1321.6399999999999 27.99 1321.8999999999999 27.54C1322.1499999999999 27.08 1322.4099999999999 26.619999999999997 1322.6299999999999 26.18C1322.85 25.74 1323.05 25.33 1323.2199999999998 24.96C1323.3399999999997 24.71 1323.4399999999998 24.48 1323.5299999999997 24.310000000000002C1323.2699999999998 23.76 1322.8699999999997 23.180000000000003 1322.6599999999999 23.090000000000003C1322.6599999999999 23.090000000000003 1320.29 23.830000000000002 1315.3799999999999 29.000000000000004C1316.35 27.180000000000003 1317.9399999999998 25.540000000000003 1317.9899999999998 25.370000000000005C1318.0499999999997 25.210000000000004 1317.8199999999997 24.110000000000003 1317.1799999999998 23.690000000000005C1317.06 23.810000000000006 1316.9099999999999 23.970000000000006 1316.7399999999998 24.150000000000006C1316.4799999999998 24.410000000000007 1316.2099999999998 24.730000000000004 1315.9099999999999 25.080000000000005C1315.62 25.440000000000005 1315.3 25.810000000000006 1314.9899999999998 26.200000000000006C1314.6799999999998 26.580000000000005 1314.3799999999999 26.970000000000006 1314.1099999999997 27.340000000000007C1313.8399999999997 27.710000000000008 1313.5799999999997 28.060000000000006 1313.3599999999997 28.360000000000007C1313.1399999999996 28.660000000000007 1312.9699999999996 28.910000000000007 1312.8499999999997 29.090000000000007C1312.7299999999998 29.26000000000001 1312.6499999999996 29.370000000000008 1312.6499999999996 29.370000000000008C1312.6499999999996 29.370000000000008 1312.7099999999996 29.26000000000001 1312.8199999999997 29.070000000000007C1312.9399999999996 28.890000000000008 1313.0899999999997 28.610000000000007 1313.2799999999997 28.290000000000006C1313.4599999999998 27.980000000000008 1313.6999999999998 27.610000000000007 1313.9499999999998 27.220000000000006C1314.2099999999998 26.830000000000005 1314.4799999999998 26.410000000000007 1314.7499999999998 26.000000000000007C1315.0199999999998 25.60000000000001 1315.3099999999997 25.19000000000001 1315.5799999999997 24.800000000000008C1315.8599999999997 24.430000000000007 1316.1299999999997 24.08000000000001 1316.3499999999997 23.800000000000008C1316.4299999999996 23.69000000000001 1316.4999999999998 23.60000000000001 1316.5699999999997 23.53000000000001C1316.0599999999997 23.620000000000008 1315.4799999999998 24.180000000000007 1314.8899999999996 24.960000000000008C1312.5999999999997 27.390000000000008 1307.6399999999996 33.870000000000005 1305.8699999999997 36.14000000000001C1305.5799999999997 36.050000000000004 1312.2699999999998 26.900000000000006 1312.4899999999996 26.210000000000008C1312.6299999999997 25.770000000000007 1312.2899999999995 24.890000000000008 1311.8499999999995 24.24000000000001C1311.6299999999994 24.52000000000001 1311.2899999999995 24.93000000000001 1310.9699999999993 25.33000000000001C1310.3899999999994 26.050000000000008 1309.8299999999992 26.81000000000001 1309.8299999999992 26.81000000000001C1309.8299999999992 26.81000000000001 1310.3399999999992 26.02000000000001 1310.8499999999992 25.24000000000001C1311.1499999999992 24.78000000000001 1311.4799999999993 24.33000000000001 1311.6799999999992 24.03000000000001C1311.6099999999992 23.960000000000008 1311.5599999999993 23.870000000000008 1311.489999999999 23.81000000000001C1311.4199999999992 23.90000000000001 1311.359999999999 23.99000000000001 1311.269999999999 24.11000000000001C1311.119999999999 24.31000000000001 1310.9499999999991 24.54000000000001 1310.749999999999 24.80000000000001C1310.539999999999 25.07000000000001 1310.319999999999 25.37000000000001 1310.079999999999 25.70000000000001C1309.849999999999 26.04000000000001 1309.569999999999 26.39000000000001 1309.299999999999 26.78000000000001C1309.029999999999 27.160000000000007 1308.739999999999 27.550000000000008 1308.4499999999991 27.980000000000008C1308.1699999999992 28.40000000000001 1307.8599999999992 28.820000000000007 1307.549999999999 29.28000000000001C1307.249999999999 29.72000000000001 1306.9399999999991 30.180000000000007 1306.639999999999 30.640000000000008C1306.029999999999 31.56000000000001 1305.429999999999 32.470000000000006 1304.889999999999 33.34000000000001C1304.349999999999 34.20000000000001 1303.839999999999 35.03000000000001 1303.409999999999 35.74000000000001C1302.559999999999 37.150000000000006 1302.0199999999988 38.10000000000001 1302.0199999999988 38.10000000000001C1302.0199999999988 38.10000000000001 1302.5299999999988 37.13000000000001 1303.3399999999988 35.68000000000001C1303.7499999999989 34.96000000000001 1304.2299999999989 34.13000000000001 1304.7499999999989 33.25000000000001C1305.2799999999988 32.370000000000005 1305.8399999999988 31.42000000000001 1306.429999999999 30.500000000000007C1306.719999999999 30.020000000000007 1307.0299999999988 29.560000000000006 1307.319999999999 29.10000000000001C1307.599999999999 28.65000000000001 1307.889999999999 28.210000000000008 1308.179999999999 27.78000000000001C1308.449999999999 27.340000000000007 1308.7399999999989 26.94000000000001 1309.0099999999989 26.550000000000008C1309.2699999999988 26.160000000000007 1309.5199999999988 25.790000000000006 1309.7599999999989 25.450000000000006C1309.9999999999989 25.120000000000008 1310.219999999999 24.800000000000008 1310.409999999999 24.540000000000006C1310.589999999999 24.270000000000007 1310.7599999999989 24.030000000000005 1310.919999999999 23.830000000000005C1310.9999999999989 23.730000000000004 1311.069999999999 23.620000000000005 1311.139999999999 23.530000000000005C1311.119999999999 23.530000000000005 1311.119999999999 23.510000000000005 1311.099999999999 23.510000000000005C1311.049999999999 23.500000000000004 1310.929999999999 23.580000000000005 1310.779999999999 23.740000000000006C1309.849999999999 24.080000000000005 1302.999999999999 31.640000000000008 1303.339999999999 30.620000000000005C1303.9699999999991 28.610000000000007 1306.329999999999 26.200000000000003 1306.399999999999 26.020000000000003C1306.449999999999 25.880000000000003 1306.089999999999 24.820000000000004 1305.429999999999 24.380000000000003C1305.2799999999988 24.500000000000004 1305.089999999999 24.660000000000004 1304.869999999999 24.840000000000003C1304.7399999999989 24.960000000000004 1304.579999999999 25.100000000000005 1304.409999999999 25.260000000000005C1304.2599999999989 25.420000000000005 1304.089999999999 25.580000000000005 1303.939999999999 25.750000000000004C1303.7699999999988 25.930000000000003 1303.619999999999 26.110000000000003 1303.449999999999 26.300000000000004C1303.2799999999988 26.490000000000006 1303.119999999999 26.690000000000005 1302.969999999999 26.880000000000003C1302.8199999999988 27.090000000000003 1302.669999999999 27.290000000000003 1302.5099999999989 27.500000000000004C1302.4799999999989 27.550000000000004 1302.439999999999 27.590000000000003 1302.409999999999 27.640000000000004C1302.389999999999 27.550000000000004 1302.379999999999 27.460000000000004 1302.339999999999 27.410000000000004C1302.339999999999 27.410000000000004 1302.339999999999 27.390000000000004 1302.359999999999 27.390000000000004C1302.499999999999 27.180000000000003 1302.649999999999 26.950000000000003 1302.779999999999 26.740000000000006C1302.9399999999991 26.530000000000005 1303.089999999999 26.320000000000004 1303.239999999999 26.110000000000007C1303.3899999999992 25.910000000000007 1303.549999999999 25.700000000000006 1303.7199999999991 25.520000000000007C1303.8699999999992 25.330000000000005 1304.039999999999 25.150000000000006 1304.1799999999992 25.000000000000007C1304.3299999999992 24.840000000000007 1304.479999999999 24.680000000000007 1304.6199999999992 24.540000000000006C1304.7499999999993 24.410000000000007 1304.8699999999992 24.290000000000006 1304.989999999999 24.180000000000007C1304.529999999999 24.150000000000006 1303.989999999999 24.570000000000007 1303.4299999999992 25.230000000000008C1303.0699999999993 24.33000000000001 1302.289999999999 23.83000000000001 1301.5999999999992 23.620000000000008C1301.5799999999992 23.620000000000008 1301.5599999999993 23.620000000000008 1301.5399999999993 23.640000000000008C1301.2699999999993 23.710000000000008 1300.8699999999992 23.81000000000001 1300.4099999999992 23.99000000000001C1300.1699999999992 24.08000000000001 1299.9299999999992 24.18000000000001 1299.6599999999992 24.29000000000001C1299.4099999999992 24.41000000000001 1299.1299999999992 24.54000000000001 1298.8599999999992 24.70000000000001C1298.5899999999992 24.84000000000001 1298.3199999999993 25.01000000000001 1298.0499999999993 25.21000000000001C1297.7799999999993 25.400000000000013 1297.4999999999993 25.600000000000012 1297.2699999999993 25.810000000000013C1297.0099999999993 26.020000000000014 1296.7699999999993 26.270000000000014 1296.5499999999993 26.490000000000013C1296.4499999999994 26.62000000000001 1296.3299999999992 26.740000000000013 1296.2299999999993 26.87000000000001C1296.1299999999994 26.990000000000013 1296.0299999999993 27.11000000000001 1295.9399999999994 27.25000000000001C1295.7599999999993 27.52000000000001 1295.5999999999995 27.780000000000012 1295.4499999999994 28.030000000000012C1295.3799999999994 28.150000000000013 1295.3099999999993 28.290000000000013 1295.2499999999993 28.400000000000013C1295.1999999999994 28.520000000000014 1295.1299999999994 28.650000000000013 1295.0799999999992 28.770000000000014C1295.0299999999993 28.890000000000015 1294.9899999999993 29.000000000000014 1294.9399999999991 29.100000000000012C1294.9099999999992 29.21000000000001 1294.8599999999992 29.32000000000001 1294.8199999999993 29.420000000000012C1294.7699999999993 29.62000000000001 1294.6999999999994 29.790000000000013 1294.6699999999992 29.950000000000014C1294.5999999999992 30.250000000000014 1294.5499999999993 30.410000000000014 1294.5499999999993 30.410000000000014C1294.5499999999993 30.410000000000014 1294.5799999999992 30.230000000000015 1294.6399999999992 29.930000000000014C1294.6699999999992 29.790000000000013 1294.7199999999991 29.600000000000016 1294.7699999999993 29.400000000000013C1294.7899999999993 29.30000000000001 1294.8399999999992 29.190000000000012 1294.8699999999992 29.090000000000014C1294.9099999999992 28.980000000000015 1294.9399999999991 28.860000000000014 1294.989999999999 28.730000000000015C1295.039999999999 28.610000000000014 1295.089999999999 28.490000000000016 1295.1399999999992 28.360000000000014C1295.1999999999991 28.240000000000013 1295.259999999999 28.100000000000012 1295.3299999999992 27.980000000000015C1295.4699999999993 27.710000000000015 1295.6199999999992 27.430000000000014 1295.7899999999993 27.160000000000014C1295.8699999999992 27.020000000000014 1295.9799999999993 26.900000000000013 1296.0599999999993 26.760000000000016C1296.1599999999992 26.620000000000015 1296.2599999999993 26.490000000000016 1296.3699999999992 26.350000000000016C1296.5899999999992 26.090000000000014 1296.8299999999992 25.840000000000014 1297.0799999999992 25.600000000000016C1297.3299999999992 25.350000000000016 1297.5899999999992 25.140000000000015 1297.8599999999992 24.930000000000014C1298.1299999999992 24.710000000000015 1298.3999999999992 24.540000000000013 1298.6799999999992 24.360000000000014C1298.9499999999991 24.180000000000014 1299.2199999999991 24.040000000000013 1299.489999999999 23.900000000000013C1299.6799999999992 23.810000000000013 1299.859999999999 23.73000000000001 1300.029999999999 23.64000000000001C1298.349999999999 24.080000000000013 1294.499999999999 25.79000000000001 1294.009999999999 31.12000000000001C1293.819999999999 33.070000000000014 1297.4699999999991 33.48000000000001 1298.009999999999 33.23000000000001C1298.349999999999 33.070000000000014 1299.269999999999 32.56000000000001 1300.1699999999992 31.77000000000001C1300.4699999999991 32.30000000000001 1301.0899999999992 32.91000000000001 1301.6599999999992 33.110000000000014C1302.7999999999993 33.500000000000014 1305.769999999999 30.430000000000014 1307.0799999999992 28.980000000000015C1304.4099999999992 33.06000000000002 1301.3699999999992 37.990000000000016 1301.2199999999993 38.490000000000016C1300.9499999999994 39.350000000000016 1302.3899999999994 40.990000000000016 1302.8999999999994 41.170000000000016C1306.6199999999994 36.420000000000016 1309.6799999999994 32.79000000000001 1311.7599999999993 30.520000000000017C1311.6599999999994 31.03000000000002 1312.6099999999992 32.210000000000015 1313.4299999999994 32.490000000000016C1317.0399999999993 28.430000000000017 1320.1299999999994 26.720000000000017 1320.1299999999994 26.720000000000017C1320.1299999999994 26.720000000000017 1317.9299999999994 30.30000000000002 1317.7699999999995 30.780000000000015C1317.6199999999994 31.260000000000016 1318.8399999999995 32.40000000000001 1319.2299999999996 32.530000000000015C1319.5599999999995 32.63000000000002 1321.4599999999996 31.340000000000014 1323.8299999999995 29.180000000000014C1323.8499999999995 29.620000000000015 1323.9899999999996 30.060000000000013 1324.2599999999995 30.460000000000015C1325.4999999999995 32.31000000000002 1326.4699999999996 32.31000000000002 1326.8099999999995 32.44000000000001C1329.4899999999996 33.360000000000014 1331.6599999999994 29.23000000000001 1332.4599999999996 26.670000000000012C1332.6999999999996 26.020000000000014 1332.6299999999997 25.470000000000013 1332.4099999999996 24.98000000000001C1332.3099999999997 24.96000000000001 1332.2199999999996 24.940000000000012 1332.1199999999997 24.93000000000001Z " fill="#FFFFFF" fill-opacity="1" transform="matrix(1,0,0,1,-1271,-17)"></path></svg>